<svg fill="#546d3a" height="512pt" viewBox="0 0 512 512" width="512pt" xmlns="http://www.w3.org/2000/svg"><path d="m256 512c-141.160156 0-256-114.839844-256-256s114.839844-256 256-256 256 114.839844 256 256-114.839844 256-256 256zm0-494.933594c-131.746094 0-238.933594 107.1875-238.933594 238.933594s107.1875 238.933594 238.933594 238.933594 238.933594-107.1875 238.933594-238.933594-107.1875-238.933594-238.933594-238.933594zm0 0"/><path d="m460.800781 256c-4.710937 0-8.535156-3.824219-8.535156-8.535156.019531-52.707032-23.183594-101.945313-65.332031-138.621094-3.554688-3.097656-3.921875-8.484375-.835938-12.042969 3.097656-3.558593 8.484375-3.914062 12.042969-.835937 45.925781 39.972656 71.210937 93.773437 71.191406 151.5 0 4.710937-3.820312 8.535156-8.53125 8.535156zm0 0"/><path d="m332.605469 71.859375c-.984375 0-1.980469-.171875-2.953125-.527344-20.804688-7.691406-42.71875-11.589843-65.117188-11.597656-4.710937 0-8.535156-3.824219-8.535156-8.535156 0-4.710938 3.824219-8.53125 8.535156-8.53125 24.429688.007812 48.324219 4.265625 71.019532 12.652343 4.421874 1.632813 6.683593 6.539063 5.054687 10.964844-1.273437 3.441406-4.53125 5.574219-8.003906 5.574219zm0 0"/><path d="m119.464844 418.132812c-1.933594 0-3.871094-.65625-5.46875-1.988281-46.683594-39.074219-71.347656-91.511719-71.328125-151.609375 0-4.710937 3.820312-8.535156 8.53125-8.535156 4.710937 0 8.535156 3.824219 8.535156 8.535156-.019531 54.894532 22.535156 102.789063 65.210937 138.519532 3.617188 3.019531 4.085938 8.40625 1.066407 12.023437-1.691407 2.015625-4.113281 3.054687-6.546875 3.054687zm0 0"/><path d="m247.433594 469.332031c-22.972656 0-45.535156-3.777343-67.066406-11.246093-4.453126-1.542969-6.808594-6.398438-5.261719-10.855469 1.542969-4.445313 6.40625-6.824219 10.851562-5.261719 19.722657 6.832031 40.40625 10.296875 61.476563 10.296875 4.582031-.136719 8.566406 3.808594 8.566406 8.535156 0 4.71875-4.019531 8.59375-8.566406 8.53125zm0 0"/><path d="m196.265625 418.132812c-14.113281 0-25.597656-11.484374-25.597656-25.597656v-102.402344c0-14.113281 11.484375-25.597656 25.597656-25.597656s25.601563 11.484375 25.601563 25.597656v102.402344c0 14.113282-11.488282 25.597656-25.601563 25.597656zm0-136.53125c-4.710937 0-8.53125 3.828126-8.53125 8.53125v102.402344c0 4.699219 3.820313 8.53125 8.53125 8.53125s8.535156-3.832031 8.535156-8.53125v-102.402344c0-4.703124-3.824219-8.53125-8.535156-8.53125zm0 0"/><path d="m196.265625 281.601562c-4.710937 0-8.53125-3.824218-8.53125-8.535156v-42.667968c0-4.707032 3.820313-8.53125 8.53125-8.53125s8.535156 3.824218 8.535156 8.53125v42.667968c0 4.710938-3.824219 8.535156-8.535156 8.535156zm0 0"/><path d="m332.792969 238.933594h-34.117188c-14.125 0-25.609375-11.484375-25.609375-25.609375v-34.125c0-4.710938 3.824219-8.53125 8.535156-8.53125h68.265626c4.710937 0 8.53125 3.820312 8.53125 8.53125v34.125c0 14.125-11.484376 25.609375-25.605469 25.609375zm-42.660157-51.199219v25.589844c0 4.710937 3.832032 8.542969 8.542969 8.542969h34.117188c4.707031 0 8.539062-3.832032 8.539062-8.542969v-25.589844zm0 0"/><path d="m315.734375 418.132812c-14.113281 0-25.601563-11.484374-25.601563-25.597656v-102.402344c0-14.113281 11.488282-25.597656 25.601563-25.597656s25.597656 11.484375 25.597656 25.597656v102.402344c0 14.113282-11.484375 25.597656-25.597656 25.597656zm0-136.53125c-4.710937 0-8.535156 3.828126-8.535156 8.53125v102.402344c0 4.699219 3.824219 8.53125 8.535156 8.53125s8.53125-3.832031 8.53125-8.53125v-102.402344c0-4.703124-3.820313-8.53125-8.53125-8.53125zm0 0"/><path d="m281.601562 187.734375c-4.710937 0-8.535156-3.824219-8.535156-8.535156v-68.265625c0-4.710938 3.824219-8.535156 8.535156-8.535156 4.707032 0 8.53125 3.824218 8.53125 8.535156v68.265625c0 4.710937-3.824218 8.535156-8.53125 8.535156zm0 0"/><path d="m349.867188 187.734375c-4.710938 0-8.535157-3.824219-8.535157-8.535156v-68.265625c0-4.710938 3.824219-8.535156 8.535157-8.535156 4.710937 0 8.53125 3.824218 8.53125 8.535156v68.265625c0 4.710937-3.820313 8.535156-8.53125 8.535156zm0 0"/><path d="m315.734375 187.734375c-4.710937 0-8.535156-3.824219-8.535156-8.535156v-68.265625c0-4.710938 3.824219-8.535156 8.535156-8.535156s8.53125 3.824218 8.53125 8.535156v68.265625c0 4.710937-3.820313 8.535156-8.53125 8.535156zm0 0"/><path d="m315.734375 281.601562c-4.710937 0-8.535156-3.824218-8.535156-8.535156v-42.667968c0-4.707032 3.824219-8.53125 8.535156-8.53125s8.53125 3.824218 8.53125 8.53125v42.667968c0 4.710938-3.820313 8.535156-8.53125 8.535156zm0 0"/><path d="m196.265625 238.933594c-23.925781 0-42.664063-29.988282-42.664063-68.265625 0-38.28125 18.738282-68.269531 42.664063-68.269531 23.929687 0 42.667969 29.988281 42.667969 68.269531 0 38.277343-18.738282 68.265625-42.667969 68.265625zm0-119.46875c-12.109375 0-25.597656 21.027344-25.597656 51.203125 0 30.171875 13.488281 51.199219 25.597656 51.199219s25.601563-21.027344 25.601563-51.199219c0-30.175781-13.492188-51.203125-25.601563-51.203125zm0 0"/></svg>