<?xml version="1.0" encoding="iso-8859-1"?>
<!-- Generator: Adobe Illustrator 22.0.0, SVG Export Plug-In . SVG Version: 6.00 Build 0)  -->
<svg fill="#546d3a" xmlns="http://www.w3.org/2000/svg" xmlns:xlink="http://www.w3.org/1999/xlink" version="1.1" x="0px" y="0px" viewBox="0 0 60 60" style="enable-background:new 0 0 60 60;" xml:space="preserve" width="512" height="512">
<g id="_x33_-House">
	<path d="M5,54c-0.208,0-0.414-0.011-0.615-0.032c-1.658-0.176-3.095-1.138-3.846-2.574c-0.726-1.388-0.713-3.033,0.035-4.398   l3.55-6.477c0.351-0.641,1.403-0.641,1.754,0l3.55,6.477c0.748,1.365,0.761,3.01,0.035,4.398c-0.751,1.436-2.189,2.398-3.845,2.574   C5.414,53.989,5.208,54,5,54z M5,43.081l-2.673,4.876c-0.432,0.789-0.439,1.704-0.017,2.51c0.447,0.854,1.28,1.405,2.284,1.512   c0.265,0.028,0.546,0.028,0.813,0c1.003-0.106,1.836-0.657,2.283-1.512c0.422-0.806,0.415-1.721-0.017-2.51L5,43.081z"/>
	<path d="M5,60c-0.552,0-1-0.448-1-1v-8c0-0.552,0.448-1,1-1s1,0.448,1,1v8C6,59.552,5.552,60,5,60z"/>
	<path d="M25,42H5c-0.381,0-0.729-0.216-0.897-0.558c-0.168-0.342-0.128-0.75,0.104-1.052l10-13c0.379-0.492,1.207-0.492,1.585,0   l10,13c0.232,0.302,0.273,0.71,0.104,1.052C25.729,41.784,25.381,42,25,42z M7.031,40h15.938L15,29.64L7.031,40z"/>
	<path d="M40,34h-8c-0.552,0-1-0.448-1-1s0.448-1,1-1h8c0.552,0,1,0.448,1,1S40.552,34,40,34z"/>
	<path d="M46,60H34c-0.552,0-1-0.448-1-1V45c0-0.552,0.448-1,1-1h12c0.552,0,1,0.448,1,1v14C47,59.552,46.552,60,46,60z M35,58h10   V46H35V58z"/>
	<path d="M17,56h-4c-0.552,0-1-0.448-1-1v-8c0-0.552,0.448-1,1-1h4c0.552,0,1,0.448,1,1v8C18,55.552,17.552,56,17,56z M14,54h2v-6   h-2V54z"/>
	<path d="M55,42h-8c-0.288,0-0.563-0.125-0.753-0.341L40,34.519l-6.247,7.14C33.563,41.875,33.288,42,33,42h-8   c-0.311,0-0.603-0.144-0.793-0.39l-10-13c-0.232-0.302-0.273-0.71-0.104-1.052C14.271,27.216,14.619,27,15,27h30   c0.311,0,0.603,0.144,0.793,0.39l10,13c0.232,0.302,0.273,0.71,0.104,1.052C55.729,41.784,55.381,42,55,42z M47.454,40h5.515   l-8.462-11H17.031l8.462,11h7.054l6.701-7.659c0.38-0.434,1.125-0.434,1.505,0L47.454,40z"/>
	<path d="M17,52h-4c-0.552,0-1-0.448-1-1v-4c0-0.552,0.448-1,1-1h4c0.552,0,1,0.448,1,1v4C18,51.552,17.552,52,17,52z M14,50h2v-2   h-2V50z"/>
	<path d="M21,56h-4c-0.552,0-1-0.448-1-1v-8c0-0.552,0.448-1,1-1h4c0.552,0,1,0.448,1,1v8C22,55.552,21.552,56,21,56z M18,54h2v-6   h-2V54z"/>
	<path d="M21,52h-4c-0.552,0-1-0.448-1-1v-4c0-0.552,0.448-1,1-1h4c0.552,0,1,0.448,1,1v4C22,51.552,21.552,52,21,52z M18,50h2v-2   h-2V50z"/>
	<path d="M59,60H1c-0.552,0-1-0.448-1-1s0.448-1,1-1h58c0.552,0,1,0.448,1,1S59.552,60,59,60z"/>
	<path d="M25,60H5c-0.552,0-1-0.448-1-1v-6c0-0.552,0.448-1,1-1c0.137,0,0.274-0.007,0.407-0.021   c1.004-0.106,1.836-0.657,2.283-1.512c0.422-0.806,0.415-1.721-0.017-2.51l-3.55-6.477c-0.17-0.31-0.164-0.686,0.017-0.99   C4.32,40.187,4.647,40,5,40h20c0.552,0,1,0.448,1,1v18C26,59.552,25.552,60,25,60z M6,58h18V42H6.688l2.738,4.996   c0.748,1.365,0.761,3.01,0.035,4.398C8.77,52.718,7.493,53.639,6,53.912V58z"/>
	<path d="M55,54c-0.208,0-0.414-0.011-0.615-0.032c-1.658-0.176-3.095-1.138-3.846-2.574c-0.726-1.388-0.713-3.033,0.035-4.398   l3.55-6.477c0.351-0.641,1.403-0.641,1.754,0l3.55,6.477c0.748,1.365,0.761,3.01,0.035,4.398c-0.751,1.436-2.189,2.398-3.845,2.574   C55.414,53.989,55.208,54,55,54z M55,43.081l-2.673,4.876c-0.432,0.789-0.439,1.704-0.017,2.51c0.447,0.854,1.28,1.405,2.284,1.512   c0.265,0.028,0.546,0.028,0.813,0c1.003-0.106,1.836-0.657,2.283-1.512c0.422-0.806,0.415-1.721-0.017-2.51L55,43.081z"/>
	<path d="M55,60c-0.552,0-1-0.448-1-1v-8c0-0.552,0.448-1,1-1s1,0.448,1,1v8C56,59.552,55.552,60,55,60z"/>
	<path d="M55,60H25c-0.552,0-1-0.448-1-1V41c0-0.552,0.448-1,1-1h7.546l6.701-7.659c0.38-0.434,1.125-0.434,1.505,0L47.454,40H55   c0.353,0,0.68,0.187,0.86,0.49c0.18,0.304,0.186,0.681,0.017,0.99l-3.55,6.477c-0.432,0.789-0.438,1.704-0.017,2.51   c0.447,0.854,1.279,1.405,2.284,1.511C54.727,51.993,54.862,52,55,52c0.552,0,1,0.448,1,1v6C56,59.552,55.552,60,55,60z M26,58h28   v-4.088c-1.494-0.273-2.769-1.194-3.462-2.518c-0.726-1.388-0.713-3.032,0.035-4.398l0,0L53.312,42H47   c-0.288,0-0.563-0.125-0.753-0.341L40,34.519l-6.247,7.14C33.563,41.875,33.288,42,33,42h-7V58z"/>
	<path d="M42,60h-4c-0.552,0-1-0.448-1-1V49c0-0.552,0.448-1,1-1h4c0.552,0,1,0.448,1,1v10C43,59.552,42.552,60,42,60z M39,58h2v-8   h-2V58z"/>
	<path d="M54,11c-0.552,0-1-0.448-1-1c0-1.103-0.897-2-2-2c-0.552,0-1-0.448-1-1s0.448-1,1-1c1.064,0,2.032,0.418,2.75,1.098   C54.774,5.252,56.744,4,59,4c0.552,0,1,0.448,1,1s-0.448,1-1,1c-2.206,0-4,1.794-4,4C55,10.552,54.552,11,54,11z"/>
	<path d="M40,21H30c-2.206,0-4-1.794-4-4c0-2.341,2.066-4.229,4.408-3.978C31.185,11.224,32.979,10,35,10s3.815,1.224,4.592,3.022   C41.939,12.771,44,14.659,44,17C44,19.206,42.206,21,40,21z M30,15c-1.103,0-2,0.897-2,2s0.897,2,2,2h10c1.103,0,2-0.897,2-2   c0-1.338-1.338-2.391-2.719-1.859c-0.275,0.106-0.583,0.085-0.842-0.056c-0.259-0.142-0.441-0.391-0.5-0.68   C37.66,13.012,36.424,12,35,12s-2.66,1.012-2.94,2.405c-0.058,0.289-0.241,0.538-0.5,0.68c-0.259,0.142-0.567,0.162-0.842,0.056   C30.477,15.047,30.235,15,30,15z"/>
	<path d="M14,11H4c-2.206,0-4-1.794-4-4c0-2.341,2.065-4.227,4.408-3.978C5.185,1.224,6.979,0,9,0s3.815,1.224,4.592,3.022   C15.938,2.774,18,4.659,18,7C18,9.206,16.206,11,14,11z M4,5C2.897,5,2,5.897,2,7s0.897,2,2,2h10c1.103,0,2-0.897,2-2   c0-1.338-1.339-2.391-2.719-1.859c-0.276,0.105-0.583,0.085-0.842-0.056c-0.259-0.142-0.441-0.391-0.5-0.68   C11.66,3.012,10.424,2,9,2S6.34,3.012,6.06,4.405c-0.058,0.289-0.241,0.538-0.5,0.68C5.302,5.227,4.994,5.247,4.719,5.141   C4.477,5.047,4.235,5,4,5z"/>
</g>

</svg>
