<svg fill="#546d3a" height="512pt" viewBox="0 0 512 512.00853" width="512pt" xmlns="http://www.w3.org/2000/svg"><path d="m443.714844 512.007812h-307.199219c-4.710937 0-8.535156-3.820312-8.535156-8.53125v-153.601562c0-14.113281-11.484375-25.601562-25.597657-25.601562-4.710937 0-8.535156-3.820313-8.535156-8.53125 0-4.710938 3.824219-8.535157 8.535156-8.535157h307.234376c23.5 0 42.632812 19.125 42.632812 42.625v153.644531c0 4.710938-3.816406 8.53125-8.535156 8.53125zm-298.664063-17.066406h290.132813v-145.109375c0-14.089843-11.46875-25.558593-25.566406-25.558593h-273.128907c5.371094 7.136718 8.550781 16 8.550781 25.601562zm0 0"/><path d="m136.515625 460.808594h-34.132813c-4.710937 0-8.535156-3.824219-8.535156-8.535156v-102.398438c0-4.710938 3.824219-8.53125 8.535156-8.53125h34.132813c4.710937 0 8.535156 3.820312 8.535156 8.53125v102.398438c0 4.710937-3.816406 8.535156-8.535156 8.535156zm-25.601563-17.066406h17.066407v-85.332032h-17.066407zm0 0"/><path d="m443.460938 358.410156c-4.710938 0-8.535157-3.824218-8.535157-8.535156 0-14.132812-11.46875-25.601562-25.566406-25.601562-4.710937 0-8.53125-3.820313-8.53125-8.53125 0-4.710938 3.820313-8.535157 8.53125-8.535157h39.9375c4.589844 0 9.242187-3.90625 10.820313-9.085937 1.425781-4.683594-.1875-9.796875-3.933594-12.679688l-200.242188-84.804687-200.363281 84.667969c-3.714844 2.875-5.359375 8.140624-3.945313 12.808593 1.589844 5.179688 6.230469 9.085938 10.820313 9.085938h39.683594c23.523437 0 42.664062 19.140625 42.664062 42.667969 0 4.710937-3.820312 8.53125-8.53125 8.53125h-73.816406c-29.566406-2.585938-52.9375-21.441407-60.292969-48.09375-4.039062-14.617188-2.367187-30.351563 4.707032-44.320313 6.667968-13.160156 18.585937-23.886719 33.570312-30.191406l189.699219-80.007813v-34.449218c0-11.144532 8.753906-18.9375 21.296875-18.9375h3.515625c12.980469 0 24.535156-9.539063 26.308593-21.707032 1.101563-7.585937-1.007812-14.90625-5.9375-20.617187-4.875-5.640625-11.941406-8.875-19.378906-8.875-10.472656 0-20.0625 6.578125-23.878906 16.359375-4.207031 10.792968-13.550781 17.773437-23.824219 17.773437h-1.792969c-7.671874 0-15.042968-3.890625-19.726562-10.402343-4.78125-6.65625-6.128906-15.085938-3.621094-22.550782 10.640625-31.644531 40.261719-52.277344 73.457032-52.378906 38.144531.359375 71.347656 30.226562 75.585937 67.984375 4.207031 37.480469-16.460937 70-50.804687 81.347656v6.433594l189.796874 80.011719c15.113282 6.375 27.085938 17.097656 33.714844 30.207031 7.082032 13.996094 8.757813 29.738281 4.726563 44.339844-7.355469 26.632812-30.71875 45.488281-59.507813 48.03125zm-192.035157-238.933594c-.988281 0-4.234375.136719-4.234375 1.867188v40.105469c0 3.433593-2.054687 6.53125-5.210937 7.859375l-194.917969 82.210937c-11.265625 4.746094-20.125 12.621094-24.96875 22.1875-5.15625 10.164063-6.394531 21.546875-3.492188 32.058594 5.445313 19.710937 22.945313 33.691406 44.605469 35.601563l63.058594-.035157c-3.523437-9.929687-13.011719-17.066406-24.140625-17.066406h-39.671875c-12.167969 0-23.328125-8.710937-27.132813-21.171875-3.695312-12.105469.960938-25.417969 11.3125-32.363281.453126-.308594.929688-.566407 1.433594-.777344l204.5625-86.445313c2.125-.894531 4.53125-.894531 6.648438 0l204.433594 86.582032c.5.210937.980468.46875 1.433593.773437 10.324219 6.949219 14.984375 20.199219 11.3125 32.230469-3.796875 12.46875-14.957031 21.179688-27.144531 21.179688h-5.84375c3.695312 4.917968 6.347656 10.652343 7.644531 16.878906 20.078125-2.5 36.726563-16.21875 42.019531-35.359375 2.902344-10.488281 1.65625-21.878907-3.507812-32.078125-4.8125-9.503906-13.730469-17.382813-25.121094-22.195313l-195.023437-82.210937c-3.164063-1.328125-5.210938-4.425782-5.210938-7.859375v-18.523438c0-3.945312 2.695313-7.375 6.535157-8.296875 29.609374-7.125 47.855468-33.738281 44.382812-64.714844-3.292969-29.347656-29.125-52.546874-58.796875-52.820312-25.898437-.554688-48.835937 16.125-57.113281 40.746094-.765625 2.269531-.273438 4.941406 1.304687 7.148437.710938.992188 2.714844 3.296875 5.871094 3.296875h1.792969c3.59375 0 6.621094-3.578125 7.917968-6.894531 6.351563-16.292969 22.332032-27.238281 39.785157-27.238281 12.398437 0 24.164062 5.382812 32.289062 14.777344 8.105469 9.378906 11.726563 21.863281 9.914063 34.246093-2.96875 20.359375-21.9375 36.308594-43.195313 36.308594h-3.539062v-.007813zm0 0"/><path d="m443.460938 435.207031h-307.203126c-4.707031 0-8.53125-3.820312-8.53125-8.53125v-34.132812c0-4.710938 3.824219-8.535157 8.53125-8.535157h307.203126c4.710937 0 8.53125 3.824219 8.53125 8.535157v34.132812c0 4.710938-3.820313 8.53125-8.53125 8.53125zm-298.667969-17.066406h290.132812v-17.066406h-290.132812zm0 0"/></svg>