<?xml version="1.0" encoding="UTF-8"?>
<svg fill="#546d3a" id="Capa_1" xmlns="http://www.w3.org/2000/svg" version="1.1" viewBox="0 0 512 512">
  <!-- Generator: Adobe Illustrator 29.8.1, SVG Export Plug-In . SVG Version: 2.1.1 Build 2)  -->
  <path d="M485.25,311.32v-149.43c0-53.68-42.86-98.22-96.54-98.74-54.2-.53-98.46,43.41-98.46,97.5v98.1c-10.02-6.03-21.73-9.5-34.25-9.5-23.46,0-44.11,12.2-55.99,30.57l-22.5-6.28-2.07-20.7c16.81-10.72,28.58-28.67,30.88-49.43h7.93c12.43,0,22.5-10.07,22.5-22.5v-7.5c0-9.78-6.27-18.12-15-21.21v-48.79c0-10.07-6.65-18.62-15.79-21.48-4.74-18.8-30.36-31.02-66.7-31.02s-61.96,12.22-66.7,31.02c-9.14,2.86-15.79,11.41-15.79,21.48v48.79c-8.73,3.1-15,11.43-15,21.21v7.5c0,12.43,10.07,22.5,22.5,22.5h7.93c2.31,20.77,14.07,38.71,30.88,49.43l-2.07,20.7-26.45,7.38c-3.99,1.11-6.32,5.25-5.21,9.24h0c1.11,3.99,5.25,6.32,9.24,5.21l24.1-6.72c5.29,10.57,19.48,17.95,36.58,17.95s31.29-7.38,36.58-17.95l17.41,4.86c-2.5,7-3.88,14.53-3.88,22.38v10.3c-10.12.6-18.17,9-18.17,19.27v15c0,10.67,8.65,19.33,19.33,19.33h13.24c3.83,12.03,11.71,22.27,22.03,29.12l-1.44,14.4-29.69,9.03c-28.31,8.61-38.05,23.02-40.56,35.65H15v-134.64c0-16.73,16.58-24.87,30.49-28.75l4.18-1.17c3.99-1.11,6.32-5.25,5.21-9.24-1.11-3.99-5.25-6.32-9.24-5.21l-4.18,1.17c-26.73,7.46-41.46,22.8-41.46,43.2v149.64h153.37v29.02h205.26v-29.02h55.87c4.14,0,7.5-3.36,7.5-7.5s-3.36-7.5-7.5-7.5h-56.6c-2.5-12.63-12.25-27.04-40.56-35.65l-29.69-9.03-1.44-14.4c10.32-6.85,18.2-17.08,22.03-29.12h13.24c10.67,0,19.33-8.65,19.33-19.33v-15c0-10.27-8.05-18.67-18.17-19.27v-10.3c0-.41-.02-.81-.03-1.22l28.84-10.49c5.5,10.28,19.49,17.41,36.3,17.41s30.8-7.14,36.3-17.41l41.92,15.24c22.04,8.01,31.03,16.39,31.03,28.92v119.64h-22.5c-4.14,0-7.5,3.36-7.5,7.5s3.36,7.5,7.5,7.5h37.5v-134.64c0-18.83-12.45-29.79-26.75-37.02ZM221.75,173.4v7.5c0,4.14-3.36,7.5-7.5,7.5h-7.5v-22.5h7.5c4.14,0,7.5,3.36,7.5,7.5ZM71.75,188.4h-7.5c-4.14,0-7.5-3.36-7.5-7.5v-7.5c0-4.14,3.36-7.5,7.5-7.5h7.5v22.5ZM71.75,150.9v-47.5c0-4.14,3.36-7.5,7.5-7.5s7.5-3.36,7.5-7.5c0-10.91,18.4-22.5,52.5-22.5s52.5,11.59,52.5,22.5c0,4.14,3.36,7.5,7.5,7.5s7.5,3.36,7.5,7.5v47.5h-67.5c-10.28,0-18.97-6.93-21.65-16.35-1.03-3.64-4.35-6.15-8.13-6.15h-.19c-3.95,0-7.34,2.61-8.45,6.36-2.75,9.32-11.39,16.14-21.58,16.14h-7.5ZM139.25,291.59c-13.44,0-23.52-6.26-23.8-11.96l1.99-19.86c6.85,2.34,14.18,3.64,21.81,3.64s14.96-1.29,21.81-3.64l1.99,19.86c-.28,5.7-10.36,11.96-23.8,11.96ZM139.25,248.4c-28.95,0-52.5-23.55-52.5-52.5v-30.77c9.14-1.86,17.09-7.05,22.5-14.25,6.85,9.12,17.75,15.02,30,15.02h52.5v30c0,28.95-23.55,52.5-52.5,52.5ZM190.52,364.78c-2.35,0-4.33-1.98-4.33-4.33v-15c0-2.35,1.98-4.33,4.33-4.33h10.67v22.07c0,.53.03,1.06.04,1.58h-10.71ZM312.98,446.68c30.65,9.32,30.65,23.98,30.65,28.79v21.53h-175.26v-21.53c0-4.82,0-19.47,30.65-28.79l26.82-8.16c4.57,10.33,16.36,17.7,30.16,17.7s25.59-7.37,30.16-17.7l26.82,8.16ZM238.83,429.24l1.36-13.57c5.01,1.51,10.32,2.34,15.82,2.34s10.8-.82,15.82-2.34l1.36,13.57c-.17,6.52-7.96,11.99-17.17,11.99s-17-5.47-17.17-11.98ZM280.69,429.02h0s0,0,0,0h0ZM295.81,363.19c0,21.95-17.86,39.81-39.81,39.81s-39.81-17.86-39.81-39.81v-22.07h79.62v22.07ZM307.64,326.12h-103.28v-10.24c0-28.47,23.17-51.64,51.64-51.64s51.64,23.17,51.64,51.64v10.24ZM325.81,345.45v15c0,2.35-1.98,4.33-4.33,4.33h-10.71c.02-.53.04-1.05.04-1.58v-22.07h10.67c2.35,0,4.33,1.98,4.33,4.33ZM387.75,306.59c-13.39,0-23.44-6.22-23.79-11.9l2.4-19.78c6.73,2.26,13.92,3.5,21.4,3.5s14.67-1.24,21.4-3.5l2.4,19.78c-.35,5.68-10.41,11.9-23.79,11.9ZM387.75,263.4c-28.95,0-52.5-23.55-52.5-52.5v-30.75c9.14-1.86,17.09-7.06,22.5-14.27,6.85,9.12,17.75,15.02,30,15.02h52.5v30c0,28.95-23.55,52.5-52.5,52.5ZM470.25,305.01l-44.3-16.1-2.51-20.75c19.08-11.94,31.81-33.13,31.81-57.26v-35c0-5.52-4.48-10-10-10h-57.5c-10.2,0-18.83-6.82-21.58-16.14-1.11-3.75-4.5-6.36-8.42-6.36s-7.31,2.61-8.42,6.36c-2.75,9.32-11.39,16.14-21.58,16.14-4.14,0-7.5,3.36-7.5,7.5v37.5c0,24.12,12.73,45.32,31.81,57.26l-2.51,20.75-28.96,10.53c-2.74-10.74-8.09-20.45-15.33-28.4v-109.34c0-45.42,36.27-83.11,81.69-83.55,45.86-.44,83.31,36.73,83.31,82.5v144.37Z"/>
  <circle cx="444.5" cy="475.47" r="7.5"/>
  <circle cx="432.75" cy="123.14" r="7.5"/>
  <circle cx="402.75" cy="108.14" r="7.5"/>
  <path d="M221.42,71.66l34.58,25.5,34.58-25.5c15.33-11.3,22.68-26.72,20.19-42.32-2.08-12.97-11.07-23.87-22.92-27.76-10.53-3.46-21.85-1.16-31.85,6.3-10-7.46-21.32-9.76-31.85-6.3-11.85,3.9-20.84,14.8-22.92,27.76-2.5,15.59,4.86,31.02,20.19,42.32ZM216.04,31.71c1.2-7.49,6.22-13.72,12.8-15.89,1.67-.55,3.39-.82,5.13-.82,5.55,0,11.36,2.77,16.78,8.09l5.25,5.16,5.25-5.16c7.12-6.99,14.9-9.58,21.91-7.27,6.57,2.16,11.6,8.4,12.79,15.89,1.58,9.86-3.62,20.02-14.28,27.88l-25.68,18.94-25.68-18.94c-10.65-7.85-15.85-18.01-14.28-27.88Z"/>
</svg>