<svg fill="#546d3a" height="512pt" viewBox="0 0 512.00427 512" width="512pt" xmlns="http://www.w3.org/2000/svg"><path d="m247.46875 460.804688c-38.894531 0-60.050781-18.183594-70.945312-33.441407-10.589844-14.832031-15.378907-34.1875-13.484376-54.511719 4.652344-49.808593 25.515626-78.121093 26.394532-79.300781 2.203125-2.933593 6.03125-4.136719 9.523437-2.976562l19.105469 6.371093 22.074219-36.792968c3.082031-5.144532 11.554687-5.144532 14.636719 0l22.074218 36.792968 19.109375-6.371093c3.480469-1.152344 7.320313.03125 9.519531 2.976562.890626 1.1875 21.746094 29.492188 26.402344 79.300781 1.894532 20.324219-2.890625 39.679688-13.480468 54.511719-10.878907 15.257813-32.035157 33.441407-70.929688 33.441407zm-47.589844-151.9375c-5.582031 9.566406-16.726562 32.316406-19.839844 65.578124-1.519531 16.230469 2.167969 31.507813 10.375 43 12.460938 17.441407 31.660157 26.292969 57.054688 26.292969s44.59375-8.851562 57.054688-26.292969c8.207031-11.492187 11.894531-26.757812 10.375-43.007812-3.132813-33.484375-14.234376-56.082031-19.8125-65.585938l-19.320313 6.441407c-3.789063 1.265625-7.960937-.273438-10.019531-3.703125l-18.277344-30.464844-18.285156 30.472656c-2.058594 3.433594-6.214844 4.976563-10.019532 3.703125zm0 0"/><path d="m324.269531 512.003906h-153.601562c-18.824219 0-34.132813-15.308594-34.132813-34.132812 0-18.824219 15.308594-34.132813 34.132813-34.132813h153.601562c18.824219 0 34.132813 15.308594 34.132813 34.132813 0 18.824218-15.308594 34.132812-34.132813 34.132812zm-153.601562-51.199218c-9.410157 0-17.066407 7.652343-17.066407 17.066406 0 9.410156 7.65625 17.066406 17.066407 17.066406h153.601562c9.410157 0 17.066407-7.65625 17.066407-17.066406 0-9.414063-7.65625-17.066406-17.066407-17.066406zm0 0"/><path d="m247.46875 426.671875c-33.75 0-42.667969-33.496094-42.667969-51.199219 0-29.03125 33.707031-55.144531 37.546875-58.027344 3.039063-2.28125 7.203125-2.28125 10.242188 0 3.839844 2.875 37.546875 28.996094 37.546875 58.027344 0 17.703125-8.917969 51.199219-42.667969 51.199219zm0-91.375c-10.078125 8.855469-25.601562 25.597656-25.601562 40.175781.011718 1.371094.480468 34.132813 25.601562 34.132813 25.308594 0 25.601562-32.742188 25.601562-34.132813 0-14.578125-15.523437-31.320312-25.601562-40.175781zm0 0"/><path d="m34.136719 512.003906c-4.710938 0-8.535157-3.824218-8.535157-8.53125v-469.335937c0-4.710938 3.824219-8.53125 8.535157-8.53125 4.710937 0 8.53125 3.820312 8.53125 8.53125v469.335937c0 4.707032-3.820313 8.53125-8.53125 8.53125zm0 0"/><path d="m34.136719 42.671875c-2.1875 0-4.371094-.835937-6.035157-2.5-3.335937-3.335937-3.335937-8.730469 0-12.066406l25.601563-25.601563c3.328125-3.335937 8.738281-3.335937 12.066406 0 3.335938 3.335938 3.335938 8.730469 0 12.066406l-25.601562 25.601563c-1.664063 1.664063-3.847657 2.5-6.03125 2.5zm0 0"/><path d="m34.136719 42.671875c-2.1875 0-4.371094-.835937-6.035157-2.5l-25.597656-25.601563c-3.339844-3.335937-3.339844-8.730468 0-12.066406 3.328125-3.335937 8.738282-3.335937 12.066406 0l25.597657 25.601563c3.335937 3.335937 3.335937 8.730469 0 12.066406-1.664063 1.664063-3.847657 2.5-6.03125 2.5zm0 0"/><path d="m477.867188 512.003906c-4.707032 0-8.53125-3.824218-8.53125-8.53125v-469.335937c0-4.710938 3.824218-8.53125 8.53125-8.53125 4.710937 0 8.535156 3.820312 8.535156 8.53125v469.335937c0 4.707032-3.824219 8.53125-8.535156 8.53125zm0 0"/><path d="m477.867188 42.671875c-2.183594 0-4.367188-.835937-6.03125-2.5-3.335938-3.335937-3.335938-8.730469 0-12.066406l25.601562-25.601563c3.335938-3.335937 8.726562-3.335937 12.0625 0 3.339844 3.335938 3.339844 8.730469 0 12.066406l-25.597656 25.601563c-1.664063 1.664063-3.847656 2.5-6.035156 2.5zm0 0"/><path d="m477.867188 42.671875c-2.183594 0-4.367188-.835937-6.03125-2.5l-25.601563-25.601563c-3.335937-3.335937-3.335937-8.730468 0-12.066406 3.339844-3.335937 8.730469-3.335937 12.066406 0l25.601563 25.601563c3.335937 3.335937 3.335937 8.730469 0 12.066406-1.664063 1.664063-3.847656 2.5-6.035156 2.5zm0 0"/><path d="m477.867188 59.738281h-443.730469c-4.710938 0-8.535157-3.824219-8.535157-8.535156s3.824219-8.53125 8.535157-8.53125h443.730469c4.710937 0 8.535156 3.820313 8.535156 8.53125s-3.824219 8.535156-8.535156 8.535156zm0 0"/><path d="m315.753906 230.402344h-119.503906c-14.105469 0-25.582031-11.476563-25.582031-25.582032v-51.214843c0-4.710938 3.824219-8.535157 8.535156-8.535157h153.597656c4.710938 0 8.535157 3.824219 8.535157 8.535157v51.214843c0 14.105469-11.476563 25.582032-25.582032 25.582032zm-128.019531-68.265625v42.683593c0 4.703126 3.824219 8.515626 8.515625 8.515626h119.511719c4.691406 0 8.507812-3.8125 8.507812-8.515626v-42.683593zm0 0"/><path d="m332.800781 162.136719h-153.597656c-4.710937 0-8.535156-3.820313-8.535156-8.53125 0-23.527344 19.140625-42.667969 42.667969-42.667969h85.332031c23.527343 0 42.667969 19.140625 42.667969 42.667969 0 4.710937-3.824219 8.53125-8.535157 8.53125zm-143.605469-17.066407h133.605469c-3.523437-9.933593-13.011719-17.066406-24.140625-17.066406h-85.324218c-11.128907 0-20.617188 7.132813-24.140626 17.066406zm0 0"/><path d="m256.003906 128.003906c-4.710937 0-8.535156-3.824218-8.535156-8.53125v-34.136718c0-4.707032 3.824219-8.53125 8.535156-8.53125 4.707032 0 8.53125 3.824218 8.53125 8.53125v34.136718c0 4.707032-3.824218 8.53125-8.53125 8.53125zm0 0"/><path d="m273.070312 93.871094h-34.136718c-4.707032 0-8.53125-3.824219-8.53125-8.535156 0-4.707032 3.824218-8.53125 8.53125-8.53125h34.136718c4.707032 0 8.53125 3.824218 8.53125 8.53125 0 4.710937-3.824218 8.535156-8.53125 8.535156zm0 0"/><path d="m179.203125 187.738281c-23.527344 0-42.667969-19.140625-42.667969-42.667969v-93.867187c0-4.710937 3.824219-8.53125 8.535156-8.53125 4.707032 0 8.53125 3.820313 8.53125 8.53125v93.867187c0 14.113282 11.488282 25.601563 25.601563 25.601563 4.710937 0 8.53125 3.820313 8.53125 8.53125s-3.820313 8.535156-8.53125 8.535156zm0 0"/><path d="m332.800781 187.738281c-4.710937 0-8.53125-3.824219-8.53125-8.535156s3.820313-8.53125 8.53125-8.53125c14.117188 0 25.601563-11.488281 25.601563-25.601563v-93.867187c0-4.710937 3.824218-8.53125 8.53125-8.53125 4.710937 0 8.535156 3.820313 8.535156 8.53125v93.867187c0 23.527344-19.140625 42.667969-42.667969 42.667969zm0 0"/><path d="m170.667969 512.003906c-18.824219 0-34.132813-15.308594-34.132813-34.132812 0-18.824219 15.308594-34.132813 34.132813-34.132813s34.132812 15.308594 34.132812 34.132813c0 18.824218-15.308593 34.132812-34.132812 34.132812zm0-51.199218c-9.410157 0-17.066407 7.652343-17.066407 17.066406 0 9.410156 7.65625 17.066406 17.066407 17.066406 9.414062 0 17.066406-7.65625 17.066406-17.066406 0-9.414063-7.652344-17.066406-17.066406-17.066406zm0 0"/><path d="m93.867188 273.070312c-2.183594 0-4.367188-.835937-6.03125-2.5-3.335938-3.335937-3.335938-8.730468 0-12.066406l34.132812-34.132812c3.328125-3.335938 8.738281-3.335938 12.066406 0 3.335938 3.335937 3.335938 8.730468 0 12.066406l-34.132812 34.132812c-1.664063 1.664063-3.847656 2.5-6.035156 2.5zm0 0"/><path d="m128.003906 273.070312c-2.1875 0-4.371094-.835937-6.035156-2.5l-34.132812-34.132812c-3.335938-3.335938-3.335938-8.730469 0-12.066406 3.328124-3.335938 8.738281-3.335938 12.066406 0l34.132812 34.132812c3.335938 3.335938 3.335938 8.730469 0 12.066406-1.664062 1.664063-3.847656 2.5-6.03125 2.5zm0 0"/><path d="m384.003906 384.003906c-2.1875 0-4.371094-.835937-6.035156-2.5-3.335938-3.335937-3.335938-8.730468 0-12.066406l34.132812-34.132812c3.335938-3.335938 8.730469-3.335938 12.066407 0 3.335937 3.335937 3.335937 8.730468 0 12.066406l-34.132813 34.132812c-1.664062 1.664063-3.847656 2.5-6.03125 2.5zm0 0"/><path d="m418.136719 384.003906c-2.1875 0-4.371094-.835937-6.035157-2.5l-34.132812-34.132812c-3.335938-3.335938-3.335938-8.730469 0-12.066406 3.335938-3.335938 8.730469-3.335938 12.066406 0l34.132813 34.132812c3.335937 3.335938 3.335937 8.730469 0 12.066406-1.664063 1.664063-3.847657 2.5-6.03125 2.5zm0 0"/></svg>