<?xml version="1.0" encoding="UTF-8"?>
<svg id="Capa_1" xmlns="http://www.w3.org/2000/svg" version="1.1" viewBox="0 0 64 64">
  <!-- Generator: Adobe Illustrator 29.8.1, SVG Export Plug-In . SVG Version: 2.1.1 Build 2)  -->
  <g fill="#e98552">
    <g>
      <path d="M40.09,23.04c5.18-4.7,6.25-10.25,6.25-10.25C47.57,5.97,44.06.9,43.41,0,43.41,0,43.37,2.5,40.71,4.75c-2.85,2.41-4.19,2.93-6.14,5.77-.24.35-2.27,3.51-1.53,8.41.2,1.32.44,1.21.66,2.56.4,2.47-.41,5.99-.41,5.99.47-.4.85-.82,1.15-1.22,2.45-3.31.97-8.87.97-8.87.14.45.26.93.38,1.44.35,1.54.25,2.47.4,2.49.15.01.36-.84.46-1.36.66-3.53-.96-6.77-.97-6.82s.75,1.29,1.07,3.03c.29,1.55.43,2.31.63,2.35.24.06.52-1.14.83-2.83.61-3.25-.04-5.62-.37-6.33-.01-.03-.12-.28-.11-.28,0,0,.38.81.47,1.01.97,2.24.39,5.82.39,5.82.39-.82.94-2.02,1.55-3.49,1.55-3.69,2.38-6.32,2.41-6.3.03.01-.79,2.74-2.1,6.16-.75,1.96-1.67,3.64-1.52,3.73.19.11,1.34-2.69,4.26-4.57.9-.58,2.17-1.12,2.17-1.12,0,0,0,0,0,0,0,0-1.47.92-2.36,1.56-.21.15-2.91,2.13-4.22,5.14-.05.13-.33.77-.17.88.24.17,1.13-1.19,2.95-1.95.63-.26,1.3-.38,1.3-.38,0,0-.66.16-1.24.44,0,0-1.67.74-3.52,2.82-.09.1-.26.29-.44.57-.14.21-.22.39-.3.53-.11.22-.25.53-.37.91,0,0,.05-.15,1.15-1.25.88-.88,1.98-1.34,1.98-1.34,0,0-1.07.67-2.11,1.84-.78.88-1.36,1.92-1.63,2.67-.03.08-.16.44-.35.92-.2.49-.34.79-.43.97,0,0-.14.3-.29.56-.82,1.41-1.61,2.17-1.61,2.17,1.04-.51,2.44-1.28,3.98-2.38,0,0,1.32-.94,2.42-1.94Z"/>
      <path d="M23.92,23.04c-5.18-4.7-6.25-10.25-6.25-10.25-1.24-6.82,2.28-11.89,2.92-12.79,0,0,.04,2.5,2.7,4.75,2.85,2.41,4.19,2.93,6.14,5.77.24.35,2.27,3.51,1.53,8.41-.2,1.32-.44,1.21-.66,2.56-.4,2.47.41,5.99.41,5.99-.47-.4-.85-.82-1.15-1.22-2.45-3.31-.97-8.87-.97-8.87-.14.45-.26.93-.38,1.44-.35,1.54-.25,2.47-.4,2.49-.15.01-.36-.84-.46-1.36-.66-3.53.96-6.77.97-6.82s-.75,1.29-1.07,3.03c-.29,1.55-.43,2.31-.63,2.35-.24.06-.52-1.14-.83-2.83-.61-3.25.04-5.62.37-6.33.01-.03.12-.28.11-.28,0,0-.38.81-.47,1.01-.97,2.24-.39,5.82-.39,5.82-.39-.82-.94-2.02-1.55-3.49-1.55-3.69-2.38-6.32-2.41-6.3-.03.01.79,2.74,2.1,6.16.75,1.96,1.67,3.64,1.52,3.73-.19.11-1.34-2.69-4.26-4.57-.9-.58-2.17-1.12-2.17-1.12,0,0,0,0,0,0,0,0,1.47.92,2.36,1.56.21.15,2.91,2.13,4.22,5.14.05.13.33.77.17.88-.24.17-1.13-1.19-2.95-1.95-.63-.26-1.3-.38-1.3-.38,0,0,.66.16,1.24.44,0,0,1.67.74,3.52,2.82.09.1.26.29.44.57.14.21.22.39.3.53.11.22.25.53.37.91,0,0-.05-.15-1.15-1.25-.88-.88-1.98-1.34-1.98-1.34,0,0,1.07.67,2.11,1.84.78.88,1.36,1.92,1.63,2.67.03.08.16.44.35.92.2.49.34.79.43.97,0,0,.14.3.29.56.82,1.41,1.61,2.17,1.61,2.17-1.04-.51-2.44-1.28-3.98-2.38,0,0-1.32-.94-2.42-1.94Z"/>
    </g>
    <g>
      <path d="M40.08,40.96c5.18,4.7,6.25,10.25,6.25,10.25,1.24,6.82-2.28,11.89-2.92,12.79,0,0-.04-2.5-2.7-4.75-2.85-2.41-4.19-2.93-6.14-5.77-.24-.35-2.27-3.51-1.53-8.41.2-1.32.44-1.21.66-2.56.4-2.47-.41-5.99-.41-5.99.47.4.85.82,1.15,1.22,2.45,3.31.97,8.87.97,8.87.14-.45.26-.93.38-1.44.35-1.54.25-2.47.4-2.49.15-.01.36.84.46,1.36.66,3.53-.96,6.77-.97,6.82s.75-1.29,1.07-3.03c.29-1.55.43-2.31.63-2.35.24-.06.52,1.14.83,2.83.61,3.25-.04,5.62-.37,6.33-.01.03-.12.28-.11.28,0,0,.38-.81.47-1.01.97-2.24.39-5.82.39-5.82.39.82.94,2.02,1.55,3.49,1.55,3.69,2.38,6.32,2.41,6.3.03-.01-.79-2.74-2.1-6.16-.75-1.96-1.67-3.64-1.52-3.73.19-.11,1.34,2.69,4.26,4.57.9.58,2.17,1.12,2.17,1.12,0,0,0,0,0,0,0,0-1.47-.92-2.36-1.56-.21-.15-2.91-2.13-4.22-5.14-.05-.13-.33-.77-.17-.88.24-.17,1.13,1.19,2.95,1.95.63.26,1.3.38,1.3.38,0,0-.66-.16-1.24-.44,0,0-1.67-.74-3.52-2.82-.09-.1-.26-.29-.44-.57-.14-.21-.22-.39-.3-.53-.11-.22-.25-.53-.37-.91,0,0,.05.15,1.15,1.25.88.88,1.98,1.34,1.98,1.34,0,0-1.07-.67-2.11-1.84-.78-.88-1.36-1.92-1.63-2.67-.03-.08-.16-.44-.35-.92-.2-.49-.34-.79-.43-.97,0,0-.14-.3-.29-.56-.82-1.41-1.61-2.17-1.61-2.17,1.04.51,2.44,1.28,3.98,2.38,0,0,1.32.94,2.42,1.94Z"/>
      <path d="M23.91,40.96c-5.18,4.7-6.25,10.25-6.25,10.25-1.24,6.82,2.28,11.89,2.92,12.79,0,0,.04-2.5,2.7-4.75,2.85-2.41,4.19-2.93,6.14-5.77.24-.35,2.27-3.51,1.53-8.41-.2-1.32-.44-1.21-.66-2.56-.4-2.47.41-5.99.41-5.99-.47.4-.85.82-1.15,1.22-2.45,3.31-.97,8.87-.97,8.87-.14-.45-.26-.93-.38-1.44-.35-1.54-.25-2.47-.4-2.49-.15-.01-.36.84-.46,1.36-.66,3.53.96,6.77.97,6.82s-.75-1.29-1.07-3.03c-.29-1.55-.43-2.31-.63-2.35-.24-.06-.52,1.14-.83,2.83-.61,3.25.04,5.62.37,6.33.01.03.12.28.11.28,0,0-.38-.81-.47-1.01-.97-2.24-.39-5.82-.39-5.82-.39.82-.94,2.02-1.55,3.49-1.55,3.69-2.38,6.32-2.41,6.3-.03-.01.79-2.74,2.1-6.16.75-1.96,1.67-3.64,1.52-3.73-.19-.11-1.34,2.69-4.26,4.57-.9.58-2.17,1.12-2.17,1.12,0,0,0,0,0,0,0,0,1.47-.92,2.36-1.56.21-.15,2.91-2.13,4.22-5.14.05-.13.33-.77.17-.88-.24-.17-1.13,1.19-2.95,1.95-.63.26-1.3.38-1.3.38,0,0,.66-.16,1.24-.44,0,0,1.67-.74,3.52-2.82.09-.1.26-.29.44-.57.14-.21.22-.39.3-.53.11-.22.25-.53.37-.91,0,0-.05.15-1.15,1.25-.88.88-1.98,1.34-1.98,1.34,0,0,1.07-.67,2.11-1.84.78-.88,1.36-1.92,1.63-2.67.03-.08.16-.44.35-.92.2-.49.34-.79.43-.97,0,0,.14-.3.29-.56.82-1.41,1.61-2.17,1.61-2.17-1.04.51-2.44,1.28-3.98,2.38,0,0-1.32.94-2.42,1.94Z"/>
    </g>
  </g>
  <g fill="#e98552">
    <g>
      <path d="M23.04,23.92c-4.7-5.18-10.25-6.25-10.25-6.25C5.97,16.43.9,19.95,0,20.59,0,20.59,2.5,20.63,4.75,23.3c2.41,2.85,2.93,4.19,5.77,6.14.35.24,3.51,2.27,8.41,1.53,1.32-.2,1.21-.44,2.56-.66,2.47-.4,5.99.41,5.99.41-.4-.47-.82-.85-1.22-1.15-3.31-2.45-8.87-.97-8.87-.97.45-.14.93-.26,1.44-.38,1.54-.35,2.47-.25,2.49-.4.01-.15-.84-.36-1.36-.46-3.53-.66-6.77.96-6.82.97s1.29-.75,3.03-1.07c1.55-.29,2.31-.43,2.35-.63.06-.24-1.14-.52-2.83-.83-3.25-.61-5.62.04-6.33.37-.03.01-.28.12-.28.11,0,0,.81-.38,1.01-.47,2.24-.97,5.82-.39,5.82-.39-.82-.39-2.02-.94-3.49-1.55-3.69-1.55-6.32-2.38-6.3-2.41.01-.03,2.74.79,6.16,2.1,1.96.75,3.64,1.67,3.73,1.52.11-.19-2.69-1.34-4.57-4.26-.58-.9-1.12-2.17-1.12-2.17,0,0,0,0,0,0,0,0,.92,1.47,1.56,2.36.15.21,2.13,2.91,5.14,4.22.13.05.77.33.88.17.17-.24-1.19-1.13-1.95-2.95-.26-.63-.38-1.3-.38-1.3,0,0,.16.66.44,1.24,0,0,.74,1.67,2.82,3.52.1.09.29.26.57.44.21.14.39.22.53.3.22.11.53.25.91.37,0,0-.15-.05-1.25-1.15-.88-.88-1.34-1.98-1.34-1.98,0,0,.67,1.07,1.84,2.11.88.78,1.92,1.36,2.67,1.63.08.03.44.16.92.35.49.2.79.34.97.43,0,0,.3.14.56.29,1.41.82,2.17,1.61,2.17,1.61-.51-1.04-1.28-2.44-2.38-3.98,0,0-.94-1.32-1.94-2.42Z"/>
      <path d="M23.04,40.09c-4.7,5.18-10.25,6.25-10.25,6.25-6.82,1.24-11.89-2.28-12.79-2.92,0,0,2.5-.04,4.75-2.7,2.41-2.85,2.93-4.19,5.77-6.14.35-.24,3.51-2.27,8.41-1.53,1.32.2,1.21.44,2.56.66,2.47.4,5.99-.41,5.99-.41-.4.47-.82.85-1.22,1.15-3.31,2.45-8.87.97-8.87.97.45.14.93.26,1.44.38,1.54.35,2.47.25,2.49.4.01.15-.84.36-1.36.46-3.53.66-6.77-.96-6.82-.97s1.29.75,3.03,1.07c1.55.29,2.31.43,2.35.63.06.24-1.14.52-2.83.83-3.25.61-5.62-.04-6.33-.37-.03-.01-.28-.12-.28-.11,0,0,.81.38,1.01.47,2.24.97,5.82.39,5.82.39-.82.39-2.02.94-3.49,1.55-3.69,1.55-6.32,2.38-6.3,2.41.01.03,2.74-.79,6.16-2.1,1.96-.75,3.64-1.67,3.73-1.52.11.19-2.69,1.34-4.57,4.26-.58.9-1.12,2.17-1.12,2.17,0,0,0,0,0,0,0,0,.92-1.47,1.56-2.36.15-.21,2.13-2.91,5.14-4.22.13-.05.77-.33.88-.17.17.24-1.19,1.13-1.95,2.95-.26.63-.38,1.3-.38,1.3,0,0,.16-.66.44-1.24,0,0,.74-1.67,2.82-3.52.1-.09.29-.26.57-.44.21-.14.39-.22.53-.3.22-.11.53-.25.91-.37,0,0-.15.05-1.25,1.15-.88.88-1.34,1.98-1.34,1.98,0,0,.67-1.07,1.84-2.11.88-.78,1.92-1.36,2.67-1.63.08-.03.44-.16.92-.35.49-.2.79-.34.97-.43,0,0,.3-.14.56-.29,1.41-.82,2.17-1.61,2.17-1.61-.51,1.04-1.28,2.44-2.38,3.98,0,0-.94,1.32-1.94,2.42Z"/>
    </g>
    <g>
      <path d="M40.96,23.92c4.7-5.18,10.25-6.25,10.25-6.25,6.82-1.24,11.89,2.28,12.79,2.92,0,0-2.5.04-4.75,2.7-2.41,2.85-2.93,4.19-5.77,6.14-.35.24-3.51,2.27-8.41,1.53-1.32-.2-1.21-.44-2.56-.66-2.47-.4-5.99.41-5.99.41.4-.47.82-.85,1.22-1.15,3.31-2.45,8.87-.97,8.87-.97-.45-.14-.93-.26-1.44-.38-1.54-.35-2.47-.25-2.49-.4-.01-.15.84-.36,1.36-.46,3.53-.66,6.77.96,6.82.97s-1.29-.75-3.03-1.07c-1.55-.29-2.31-.43-2.35-.63-.06-.24,1.14-.52,2.83-.83,3.25-.61,5.62.04,6.33.37.03.01.28.12.28.11,0,0-.81-.38-1.01-.47-2.24-.97-5.82-.39-5.82-.39.82-.39,2.02-.94,3.49-1.55,3.69-1.55,6.32-2.38,6.3-2.41-.01-.03-2.74.79-6.16,2.1-1.96.75-3.64,1.67-3.73,1.52-.11-.19,2.69-1.34,4.57-4.26.58-.9,1.12-2.17,1.12-2.17,0,0,0,0,0,0,0,0-.92,1.47-1.56,2.36-.15.21-2.13,2.91-5.14,4.22-.13.05-.77.33-.88.17-.17-.24,1.19-1.13,1.95-2.95.26-.63.38-1.3.38-1.3,0,0-.16.66-.44,1.24,0,0-.74,1.67-2.82,3.52-.1.09-.29.26-.57.44-.21.14-.39.22-.53.3-.22.11-.53.25-.91.37,0,0,.15-.05,1.25-1.15.88-.88,1.34-1.98,1.34-1.98,0,0-.67,1.07-1.84,2.11-.88.78-1.92,1.36-2.67,1.63-.08.03-.44.16-.92.35-.49.2-.79.34-.97.43,0,0-.3.14-.56.29-1.41.82-2.17,1.61-2.17,1.61.51-1.04,1.28-2.44,2.38-3.98,0,0,.94-1.32,1.94-2.42Z"/>
      <path d="M40.96,40.1c4.7,5.18,10.25,6.25,10.25,6.25,6.82,1.24,11.89-2.28,12.79-2.92,0,0-2.5-.04-4.75-2.7-2.41-2.85-2.93-4.19-5.77-6.14-.35-.24-3.51-2.27-8.41-1.53-1.32.2-1.21.44-2.56.66-2.47.4-5.99-.41-5.99-.41.4.47.82.85,1.22,1.15,3.31,2.45,8.87.97,8.87.97-.45.14-.93.26-1.44.38-1.54.35-2.47.25-2.49.4-.01.15.84.36,1.36.46,3.53.66,6.77-.96,6.82-.97s-1.29.75-3.03,1.07c-1.55.29-2.31.43-2.35.63-.06.24,1.14.52,2.83.83,3.25.61,5.62-.04,6.33-.37.03-.01.28-.12.28-.11,0,0-.81.38-1.01.47-2.24.97-5.82.39-5.82.39.82.39,2.02.94,3.49,1.55,3.69,1.55,6.32,2.38,6.3,2.41-.01.03-2.74-.79-6.16-2.1-1.96-.75-3.64-1.67-3.73-1.52-.11.19,2.69,1.34,4.57,4.26.58.9,1.12,2.17,1.12,2.17,0,0,0,0,0,0,0,0-.92-1.47-1.56-2.36-.15-.21-2.13-2.91-5.14-4.22-.13-.05-.77-.33-.88-.17-.17.24,1.19,1.13,1.95,2.95.26.63.38,1.3.38,1.3,0,0-.16-.66-.44-1.24,0,0-.74-1.67-2.82-3.52-.1-.09-.29-.26-.57-.44-.21-.14-.39-.22-.53-.3-.22-.11-.53-.25-.91-.37,0,0,.15.05,1.25,1.15.88.88,1.34,1.98,1.34,1.98,0,0-.67-1.07-1.84-2.11-.88-.78-1.92-1.36-2.67-1.63-.08-.03-.44-.16-.92-.35-.49-.2-.79-.34-.97-.43,0,0-.3-.14-.56-.29-1.41-.82-2.17-1.61-2.17-1.61.51,1.04,1.28,2.44,2.38,3.98,0,0,.94,1.32,1.94,2.42Z"/>
    </g>
  </g>
</svg>