<?xml version="1.0" encoding="iso-8859-1"?>
<!-- Generator: Adobe Illustrator 19.0.0, SVG Export Plug-In . SVG Version: 6.00 Build 0)  -->
<svg fill="#546d3a" version="1.1" id="Capa_1" xmlns="http://www.w3.org/2000/svg" xmlns:xlink="http://www.w3.org/1999/xlink" x="0px" y="0px"
	 viewBox="0 0 512 512" style="enable-background:new 0 0 512 512;" xml:space="preserve">
<g>
	<g>
		<path d="M204.8,187.733c-32.939,0-59.733,26.795-59.733,59.733V384c0,32.939,26.795,59.733,59.733,59.733
			c32.939,0,59.733-26.795,59.733-59.733V247.467C264.533,214.528,237.739,187.733,204.8,187.733z M247.467,384
			c0,23.526-19.14,42.667-42.667,42.667c-23.526,0-42.667-19.14-42.667-42.667V247.467c0-23.526,19.14-42.667,42.667-42.667
			c23.526,0,42.667,19.14,42.667,42.667V384z"/>
	</g>
</g>
<g>
	<g>
		<path d="M227.9,335.3c-3.328-3.337-8.738-3.337-12.066,0l-17.067,17.067c-3.337,3.337-3.337,8.73,0,12.066
			c1.664,1.664,3.849,2.5,6.033,2.5c2.185,0,4.369-0.836,6.033-2.5l17.067-17.067C231.236,344.03,231.236,338.637,227.9,335.3z"/>
	</g>
</g>
<g>
	<g>
		<path d="M210.833,395.034l-25.6-25.6c-3.328-3.336-8.738-3.336-12.066,0c-3.337,3.337-3.337,8.73,0,12.066l25.6,25.6
			c1.664,1.664,3.849,2.5,6.033,2.5c2.185,0,4.369-0.836,6.033-2.5C214.17,403.763,214.17,398.37,210.833,395.034z"/>
	</g>
</g>
<g>
	<g>
		<path d="M330.3,335.3c-3.328-3.337-8.738-3.337-12.066,0l-17.067,17.067c-3.336,3.337-3.336,8.73,0,12.066
			c1.664,1.664,3.849,2.5,6.033,2.5c2.185,0,4.369-0.836,6.033-2.5l17.067-17.067C333.636,344.03,333.636,338.637,330.3,335.3z"/>
	</g>
</g>
<g>
	<g>
		<path d="M330.3,232.9c-3.328-3.337-8.738-3.337-12.066,0l-17.067,17.067c-3.336,3.336-3.336,8.73,0,12.066
			c1.664,1.664,3.849,2.5,6.033,2.5c2.185,0,4.369-0.836,6.033-2.5l17.067-17.067C333.636,241.63,333.636,236.237,330.3,232.9z"/>
	</g>
</g>
<g>
	<g>
		<path d="M313.233,395.034l-17.067-17.067c-3.328-3.336-8.738-3.336-12.066,0c-3.337,3.337-3.337,8.73,0,12.066l17.067,17.067
			c1.664,1.664,3.849,2.5,6.033,2.5c2.185,0,4.369-0.836,6.033-2.5C316.57,403.763,316.57,398.37,313.233,395.034z"/>
	</g>
</g>
<g>
	<g>
		<path d="M204.8,290.133c-4.71,0-8.533,3.823-8.533,8.533v204.8c0,4.71,3.823,8.533,8.533,8.533c4.71,0,8.533-3.823,8.533-8.533
			v-204.8C213.333,293.956,209.51,290.133,204.8,290.133z"/>
	</g>
</g>
<g>
	<g>
		<path d="M409.6,25.6c-32.939,0-59.733,26.795-59.733,59.733V384c0,32.939,26.795,59.733,59.733,59.733
			s59.733-26.795,59.733-59.733V85.333C469.333,52.395,442.539,25.6,409.6,25.6z M452.267,384c0,23.526-19.14,42.667-42.667,42.667
			c-23.526,0-42.667-19.14-42.667-42.667V85.333c0-23.526,19.14-42.667,42.667-42.667c23.526,0,42.667,19.14,42.667,42.667V384z"/>
	</g>
</g>
<g>
	<g>
		<path d="M307.2,136.533c-4.71,0-8.533,3.823-8.533,8.533v358.4c0,4.71,3.823,8.533,8.533,8.533s8.533-3.823,8.533-8.533v-358.4
			C315.733,140.356,311.91,136.533,307.2,136.533z"/>
	</g>
</g>
<g>
	<g>
		<path d="M307.2,85.333c-32.939,0-59.733,26.795-59.733,59.733V384c0,32.939,26.795,59.733,59.733,59.733
			s59.733-26.795,59.733-59.733V145.067C366.933,112.128,340.139,85.333,307.2,85.333z M349.867,384
			c0,23.526-19.14,42.667-42.667,42.667c-23.526,0-42.667-19.14-42.667-42.667V145.067c0-23.526,19.14-42.667,42.667-42.667
			c23.526,0,42.667,19.14,42.667,42.667V384z"/>
	</g>
</g>
<g>
	<g>
		<path d="M313.233,292.634l-17.067-17.067c-3.328-3.337-8.738-3.337-12.066,0c-3.337,3.337-3.337,8.73,0,12.066l17.067,17.067
			c1.664,1.664,3.849,2.5,6.033,2.5c2.185,0,4.369-0.836,6.033-2.5C316.57,301.363,316.57,295.97,313.233,292.634z"/>
	</g>
</g>
<g>
	<g>
		<path d="M313.233,198.767L296.166,181.7c-3.328-3.336-8.738-3.336-12.066,0c-3.337,3.337-3.337,8.73,0,12.066l17.067,17.067
			c1.664,1.664,3.849,2.5,6.033,2.5c2.185,0,4.369-0.836,6.033-2.5C316.57,207.497,316.57,202.104,313.233,198.767z"/>
	</g>
</g>
<g>
	<g>
		<path d="M432.7,335.3c-3.328-3.337-8.738-3.337-12.066,0l-17.067,17.067c-3.337,3.337-3.337,8.73,0,12.066
			c1.664,1.664,3.849,2.5,6.033,2.5c2.185,0,4.369-0.836,6.033-2.5l17.067-17.067C436.036,344.03,436.036,338.637,432.7,335.3z"/>
	</g>
</g>
<g>
	<g>
		<path d="M432.7,232.9c-3.328-3.337-8.738-3.337-12.066,0l-17.067,17.067c-3.337,3.336-3.337,8.73,0,12.066
			c1.664,1.664,3.849,2.5,6.033,2.5c2.185,0,4.369-0.836,6.033-2.5l17.067-17.067C436.036,241.63,436.036,236.237,432.7,232.9z"/>
	</g>
</g>
<g>
	<g>
		<path d="M432.7,121.967c-3.328-3.337-8.738-3.337-12.066,0l-17.067,17.067c-3.337,3.336-3.337,8.73,0,12.066
			c1.664,1.664,3.849,2.5,6.033,2.5c2.185,0,4.369-0.836,6.033-2.5l17.067-17.067C436.036,130.697,436.036,125.303,432.7,121.967z"
			/>
	</g>
</g>
<g>
	<g>
		<path d="M415.633,395.034l-17.067-17.067c-3.328-3.336-8.738-3.336-12.066,0c-3.337,3.337-3.337,8.73,0,12.066l17.067,17.067
			c1.664,1.664,3.849,2.5,6.033,2.5c2.185,0,4.369-0.836,6.033-2.5C418.97,403.763,418.97,398.37,415.633,395.034z"/>
	</g>
</g>
<g>
	<g>
		<path d="M409.6,68.267c-4.71,0-8.533,3.823-8.533,8.533v426.667c0,4.71,3.823,8.533,8.533,8.533s8.533-3.823,8.533-8.533V76.8
			C418.133,72.09,414.31,68.267,409.6,68.267z"/>
	</g>
</g>
<g>
	<g>
		<path d="M415.633,292.634l-17.067-17.067c-3.328-3.337-8.738-3.337-12.066,0c-3.337,3.337-3.337,8.73,0,12.066l17.067,17.067
			c1.664,1.664,3.849,2.5,6.033,2.5c2.185,0,4.369-0.836,6.033-2.5C418.97,301.363,418.97,295.97,415.633,292.634z"/>
	</g>
</g>
<g>
	<g>
		<path d="M415.633,198.767L398.566,181.7c-3.328-3.336-8.738-3.336-12.066,0c-3.337,3.337-3.337,8.73,0,12.066l17.067,17.067
			c1.664,1.664,3.849,2.5,6.033,2.5c2.185,0,4.369-0.836,6.033-2.5C418.97,207.497,418.97,202.104,415.633,198.767z"/>
	</g>
</g>
<g>
	<g>
		<path d="M125.5,335.3c-3.328-3.337-8.738-3.337-12.066,0l-17.067,17.067c-3.337,3.337-3.337,8.73,0,12.066
			c1.664,1.664,3.849,2.5,6.033,2.5c2.185,0,4.369-0.836,6.033-2.5l17.067-17.067C128.836,344.03,128.836,338.637,125.5,335.3z"/>
	</g>
</g>
<g>
	<g>
		<path d="M125.5,232.9c-3.328-3.337-8.738-3.337-12.066,0l-17.067,17.067c-3.337,3.336-3.337,8.73,0,12.066
			c1.664,1.664,3.849,2.5,6.033,2.5c2.185,0,4.369-0.836,6.033-2.5l17.067-17.067C128.836,241.63,128.836,236.237,125.5,232.9z"/>
	</g>
</g>
<g>
	<g>
		<path d="M108.433,395.034l-17.067-17.067c-3.328-3.336-8.738-3.336-12.066,0c-3.337,3.337-3.337,8.73,0,12.066L96.367,407.1
			c1.664,1.664,3.849,2.5,6.033,2.5c2.185,0,4.369-0.836,6.033-2.5C111.77,403.763,111.77,398.37,108.433,395.034z"/>
	</g>
</g>
<g>
	<g>
		<path d="M102.4,179.2c-4.71,0-8.533,3.823-8.533,8.533v315.733c0,4.71,3.823,8.533,8.533,8.533c4.71,0,8.533-3.823,8.533-8.533
			V187.733C110.933,183.023,107.11,179.2,102.4,179.2z"/>
	</g>
</g>
<g>
	<g>
		<path d="M102.4,128c-32.939,0-59.733,26.795-59.733,59.733V384c0,32.939,26.795,59.733,59.733,59.733s59.733-26.795,59.733-59.733
			V187.733C162.133,154.795,135.339,128,102.4,128z M145.067,384c0,23.526-19.14,42.667-42.667,42.667
			c-23.526,0-42.667-19.14-42.667-42.667V187.733c0-23.526,19.14-42.667,42.667-42.667c23.526,0,42.667,19.14,42.667,42.667V384z"/>
	</g>
</g>
<g>
	<g>
		<path d="M108.433,292.634l-17.067-17.067c-3.328-3.337-8.738-3.337-12.066,0c-3.337,3.337-3.337,8.73,0,12.066L96.367,304.7
			c1.664,1.664,3.849,2.5,6.033,2.5c2.185,0,4.369-0.836,6.033-2.5C111.77,301.363,111.77,295.97,108.433,292.634z"/>
	</g>
</g>
<g>
	<g>
		<path d="M247.467,0c-32.939,0-59.733,27.452-59.733,61.184v135.859c0,2.509,1.109,4.898,3.029,6.519
			c1.92,1.613,4.454,2.321,6.929,1.894c2.603-0.444,4.932-0.657,7.108-0.657c23.518,0,42.658,19.132,42.667,42.65
			c0,4.719,3.823,8.533,8.533,8.533s8.533-3.823,8.533-8.533V145.067c0-20.881,14.95-38.554,35.55-42.027
			c4.105-0.691,7.117-4.25,7.117-8.414V61.184C307.2,27.452,280.405,0,247.467,0z M290.133,87.859
			c-25.114,7.415-42.667,30.421-42.667,57.207v60.638c-10.846-11.085-25.967-17.971-42.667-17.971V61.184
			c0-24.329,19.14-44.117,42.667-44.117c23.526,0,42.667,19.789,42.667,44.117V87.859z"/>
	</g>
</g>
<g>
	<g>
		<path d="M68.267,494.933H8.533c-4.71,0-8.533,3.823-8.533,8.533S3.823,512,8.533,512h59.733c4.71,0,8.533-3.823,8.533-8.533
			S72.977,494.933,68.267,494.933z"/>
	</g>
</g>
<g>
	<g>
		<path d="M503.467,494.933H341.333c-4.71,0-8.533,3.823-8.533,8.533s3.823,8.533,8.533,8.533h162.133
			c4.71,0,8.533-3.823,8.533-8.533S508.177,494.933,503.467,494.933z"/>
	</g>
</g>
<g>
	<g>
		<path d="M273.067,494.933h-34.133c-4.71,0-8.533,3.823-8.533,8.533s3.823,8.533,8.533,8.533h34.133
			c4.71,0,8.533-3.823,8.533-8.533S277.777,494.933,273.067,494.933z"/>
	</g>
</g>
<g>
	<g>
		<path d="M204.8,494.933H102.4c-4.71,0-8.533,3.823-8.533,8.533S97.69,512,102.4,512h102.4c4.71,0,8.533-3.823,8.533-8.533
			S209.51,494.933,204.8,494.933z"/>
	</g>
</g>
<g>
</g>
<g>
</g>
<g>
</g>
<g>
</g>
<g>
</g>
<g>
</g>
<g>
</g>
<g>
</g>
<g>
</g>
<g>
</g>
<g>
</g>
<g>
</g>
<g>
</g>
<g>
</g>
<g>
</g>
</svg>
