<svg fill="#546d3a" height="512pt" viewBox="0 0 512.00427 512" width="512pt" xmlns="http://www.w3.org/2000/svg"><path d="m230.402344 187.734375c-4.710938 0-8.535156-3.820313-8.535156-8.53125 0-9.414063-7.652344-17.066406-17.066407-17.066406-4.710937 0-8.53125-3.824219-8.53125-8.535157 0-4.710937 3.820313-8.53125 8.53125-8.53125 9.082031 0 17.339844 3.566407 23.46875 9.367188 8.738281-15.75 25.546875-26.433594 44.800781-26.433594 4.707032 0 8.53125 3.820313 8.53125 8.53125 0 4.710938-3.824218 8.535156-8.53125 8.535156-18.824218 0-34.136718 15.308594-34.136718 34.132813 0 4.710937-3.820313 8.53125-8.53125 8.53125zm0 0"/><path d="m477.867188 179.203125h-85.332032c-18.824218 0-34.132812-15.308594-34.132812-34.132813 0-19.976562 17.59375-36.039062 37.613281-33.945312 6.632813-15.34375 21.941406-25.789062 39.1875-25.789062s32.554687 10.445312 39.183594 25.789062c20.035156-2.082031 37.617187 13.96875 37.617187 33.945312 0 18.824219-15.3125 34.132813-34.136718 34.132813zm-85.332032-51.199219c-9.410156 0-17.066406 7.652344-17.066406 17.066406 0 9.410157 7.65625 17.066407 17.066406 17.066407h85.332032c9.414062 0 17.066406-7.65625 17.066406-17.066407 0-11.417968-11.414063-20.421874-23.199219-15.863281-2.347656.902344-4.976563.730469-7.1875-.480469-2.207031-1.210937-3.761719-3.335937-4.265625-5.800781-2.378906-11.886719-12.925781-20.523437-25.078125-20.523437s-22.699219 8.636718-25.089844 20.523437c-.492187 2.464844-2.054687 4.589844-4.265625 5.800781-2.210937 1.210938-4.839844 1.382813-7.183594.480469-2.058593-.804687-4.125-1.203125-6.128906-1.203125zm0 0"/><path d="m238.933594 93.867188h-85.332032c-18.824218 0-34.132812-15.308594-34.132812-34.132813 0-19.976563 17.621094-36.078125 37.613281-33.945313 6.632813-15.34375 21.941407-25.78515575 39.1875-25.78515575 17.246094 0 32.554688 10.44140575 39.183594 25.78515575 20.019531-2.125 37.617187 13.96875 37.617187 33.945313 0 18.824219-15.308593 34.132813-34.136718 34.132813zm-85.332032-51.199219c-9.410156 0-17.066406 7.65625-17.066406 17.066406 0 9.414063 7.65625 17.066406 17.066406 17.066406h85.332032c9.414062 0 17.070312-7.652343 17.070312-17.066406 0-11.417969-11.417968-20.425781-23.203125-15.863281-2.347656.898437-4.976562.726562-7.1875-.476563-2.207031-1.203125-3.761719-3.335937-4.265625-5.804687-2.378906-11.886719-12.925781-20.519532-25.078125-20.519532-12.152343 0-22.699219 8.632813-25.089843 20.519532-.492188 2.46875-2.054688 4.59375-4.265626 5.804687-2.210937 1.210938-4.839843 1.382813-7.183593.476563-2.058594-.800782-4.121094-1.203125-6.128907-1.203125zm0 0"/><path d="m119.46875 247.46875h-85.332031c-18.824219 0-34.13281275-15.308594-34.13281275-34.132812 0-19.976563 17.62890575-36.070313 37.61328175-33.945313 6.628906-15.34375 21.9375-25.789063 39.183593-25.789063 17.246094 0 32.554688 10.445313 39.1875 25.789063 20.027344-2.117187 37.613281 13.96875 37.613281 33.945313 0 18.824218-15.308593 34.132812-34.132812 34.132812zm-85.332031-51.199219c-9.414063 0-17.066407 7.652344-17.066407 17.066407 0 9.410156 7.652344 17.066406 17.066407 17.066406h85.332031c9.414062 0 17.066406-7.65625 17.066406-17.066406 0-11.417969-11.417968-20.414063-23.203125-15.863282-2.34375.894532-4.972656.726563-7.183593-.480468-2.210938-1.203126-3.761719-3.335938-4.265626-5.800782-2.382812-11.886718-12.929687-20.523437-25.082031-20.523437-12.148437 0-22.699219 8.636719-25.085937 20.523437-.496094 2.464844-2.058594 4.589844-4.265625 5.800782-2.210938 1.214843-4.839844 1.382812-7.1875.480468-2.054688-.804687-4.121094-1.203125-6.125-1.203125zm0 0"/><path d="m426.667969 512.003906h-221.867188c-4.710937 0-8.53125-3.824218-8.53125-8.535156v-85.332031c0-2.261719.894531-4.4375 2.5-6.035157l110.933594-110.933593c3.328125-3.335938 8.738281-3.335938 12.066406 0l110.933594 110.933593c1.601563 1.597657 2.5 3.773438 2.5 6.035157v85.332031c0 4.710938-3.824219 8.535156-8.535156 8.535156zm-213.332031-17.070312h204.800781v-73.265625l-102.402344-102.398438-102.398437 102.398438zm0 0"/><path d="m204.800781 426.667969h-119.464843c-3.457032 0-6.5625-2.082031-7.886719-5.265625-1.320313-3.191406-.585938-6.859375 1.851562-9.300782l110.933594-110.933593c1.597656-1.601563 3.773437-2.5 6.035156-2.5h119.464844c3.457031 0 6.5625 2.082031 7.886719 5.265625 1.320312 3.191406.589844 6.859375-1.851563 9.300781l-110.933593 110.933594c-1.597657 1.605469-3.773438 2.5-6.035157 2.5zm-98.867187-17.066407h95.328125l93.867187-93.867187h-95.328125zm0 0"/><path d="m204.800781 512.003906h-119.464843c-4.710938 0-8.535157-3.824218-8.535157-8.535156v-85.332031c0-4.710938 3.824219-8.535157 8.535157-8.535157h119.464843c4.710938 0 8.535157 3.824219 8.535157 8.535157v85.332031c0 4.710938-3.824219 8.535156-8.535157 8.535156zm-110.933593-17.070312h102.402343v-68.265625h-102.402343zm0 0"/><path d="m384.003906 512.003906h-136.535156c-4.710938 0-8.535156-3.824218-8.535156-8.535156v-68.265625c0-1.996094.703125-3.925781 1.980468-5.460937l42.667969-51.203126c1.621094-1.945312 4.019531-3.070312 6.554688-3.070312h51.199219c2.535156 0 4.933593 1.125 6.554687 3.070312l42.664063 51.203126c1.28125 1.535156 1.980468 3.464843 1.980468 5.460937v68.265625c0 4.710938-3.824218 8.535156-8.53125 8.535156zm-128-17.070312h119.464844v-56.640625l-38.125-45.757813h-43.207031l-38.132813 45.757813zm0 0"/><path d="m247.46875 512.003906c-4.710938 0-8.535156-3.824218-8.535156-8.535156s3.824218-8.535156 8.535156-8.535156c35.3125 0 49.152344-82.601563 51.21875-111.539063.332031-4.699219 4.375-8.191406 9.121094-7.898437 4.703125.339844 8.242187 4.417968 7.902344 9.121094-.929688 13.03125-10.753907 127.386718-68.242188 127.386718zm0 0"/><path d="m384.003906 512.003906c-57.492187 0-67.3125-114.355468-68.25-127.394531-.335937-4.703125 3.199219-8.78125 7.902344-9.113281 4.726562-.402344 8.777344 3.199218 9.121094 7.898437 2.234375 31.019531 15.792968 111.539063 51.226562 111.539063 4.707032 0 8.53125 3.824218 8.53125 8.535156s-3.824218 8.535156-8.53125 8.535156zm0 0"/><path d="m8.535156 503.46875c-2.183594 0-4.367187-.835938-6.03125-2.5-3.339844-3.335938-3.339844-8.730469 0-12.066406l213.332032-213.332032c3.328124-3.335937 8.738281-3.335937 12.066406 0 3.335937 3.335938 3.335937 8.726563 0 12.066407l-213.332032 213.332031c-1.664062 1.664062-3.851562 2.5-6.035156 2.5zm0 0"/><path d="m196.269531 315.734375c-2.183593 0-4.371093-.835937-6.035156-2.5l-25.597656-25.597656c-3.335938-3.339844-3.335938-8.730469 0-12.066407 3.328125-3.335937 8.738281-3.335937 12.066406 0l25.597656 25.597657c3.335938 3.335937 3.335938 8.730469 0 12.066406-1.664062 1.664063-3.847656 2.5-6.03125 2.5zm0 0"/><path d="m503.46875 503.46875c-2.183594 0-4.367188-.835938-6.03125-2.5l-213.335938-213.332031c-3.335937-3.339844-3.335937-8.730469 0-12.066407 3.328126-3.335937 8.738282-3.335937 12.066407 0l213.332031 213.332032c3.339844 3.335937 3.339844 8.730468 0 12.066406-1.664062 1.664062-3.847656 2.5-6.03125 2.5zm0 0"/><path d="m315.734375 315.734375c-2.183594 0-4.367187-.835937-6.03125-2.5-3.335937-3.335937-3.335937-8.730469 0-12.066406l25.597656-25.597657c3.328125-3.335937 8.738281-3.335937 12.066407 0 3.335937 3.335938 3.335937 8.726563 0 12.066407l-25.597657 25.597656c-1.664062 1.664063-3.847656 2.5-6.035156 2.5zm0 0"/><path d="m8.535156 503.46875c-4.710937 0-8.53124975-3.824219-8.53124975-8.535156v-34.132813c0-4.710937 3.82031275-8.53125 8.53124975-8.53125 4.710938 0 8.535156 3.820313 8.535156 8.53125v34.132813c0 4.710937-3.824218 8.535156-8.535156 8.535156zm0 0"/><path d="m503.46875 503.46875c-4.710938 0-8.535156-3.824219-8.535156-8.535156v-34.132813c0-4.710937 3.824218-8.53125 8.535156-8.53125s8.535156 3.820313 8.535156 8.53125v34.132813c0 4.710937-3.824218 8.535156-8.535156 8.535156zm0 0"/></svg>