<svg fill="#e98552" id="svg8" height="412pt" viewBox="0 0 145.34444 145.3444" width="412pt" xmlns="http://www.w3.org/2000/svg" xmlns:svg="http://www.w3.org/2000/svg" xmlns:rdf="http://www.w3.org/1999/02/22-rdf-syntax-ns#" xmlns:cc="http://creativecommons.org/ns#" xmlns:dc="http://purl.org/dc/elements/1.1/"><g id="layer3" transform="translate(-478.014 -1138.413)"><path id="icon-clock" d="m550.68598 1138.4133a72.668784 72.668784 0 0 0 -72.67222 72.6722 72.668784 72.668784 0 0 0 72.67222 72.6722 72.668784 72.668784 0 0 0 72.67222-72.6722 72.668784 72.668784 0 0 0 -72.67222-72.6722zm-.025 26.3969a6.608917 6.608917 0 0 1 6.63471 6.6347v36.9299l26.10003 26.0613a6.608917 6.608917 0 0 1 0 9.3584 6.608917 6.608917 0 0 1 -9.35832 0l-27.8305-27.8555a6.608917 6.608917 0 0 1 -2.12992-4.8793v-39.6148a6.608917 6.608917 0 0 1 6.5831-6.6347z" stroke-linecap="round" stroke-linejoin="round" stroke-width=".529"/></g></svg>