<svg viewBox="0 0 24 24" fill="#546d3a" xmlns="http://www.w3.org/2000/svg" id="Whatsapp-Line--Streamline-Remix">
  <desc>
    Whatsapp Line Streamline Icon: https://streamlinehq.com
  </desc>
  <path d="m7.25361 18.4944 0.72473 0.4226C9.18909 19.623 10.5651 20 12.001 20c4.4183 0 8 -3.5817 8 -8 0 -4.41828 -3.5817 -8 -8 -8s-8.00002 3.58172 -8.00002 8c0 1.4363 0.37723 2.8128 1.08368 4.0238l0.42238 0.724 -0.65349 2.4016 2.40006 -0.655ZM2.00516 22l1.35196 -4.9685C2.49494 15.5536 2.00098 13.8345 2.00098 12c0 -5.52285 4.47715 -10 10.00002 -10 5.5228 0 10 4.47715 10 10 0 5.5228 -4.4772 10 -10 10 -1.8339 0 -3.55249 -0.4936 -5.03014 -1.3553L2.00516 22ZM8.39232 7.30833c0.13388 -0.00941 0.26821 -0.01085 0.40227 -0.00431 0.05416 0.00356 0.10806 0.00982 0.162 0.01605 0.15926 0.01839 0.33439 0.11538 0.39327 0.24887 0.29832 0.67642 0.58778 1.35671 0.86834 2.04069 0.0619 0.15099 0.0246 0.3467 -0.0932 0.53607 -0.0598 0.0971 -0.15372 0.2333 -0.26252 0.3726 -0.11309 0.1447 -0.35649 0.4108 -0.35649 0.4108s-0.09861 0.1182 -0.06144 0.2653c0.01448 0.0556 0.06066 0.1366 0.10253 0.2047 0.02319 0.0377 0.04472 0.0714 0.05869 0.0947 0.25592 0.4273 0.59993 0.8605 1.02013 1.2678 0.1204 0.1167 0.2372 0.2358 0.3628 0.3464 0.4683 0.4129 0.9981 0.7503 1.5703 1.0002l0.0051 0.0023c0.0845 0.0364 0.1279 0.0563 0.2516 0.1088 0.0624 0.0264 0.1262 0.0492 0.1917 0.0665 0.0237 0.0062 0.048 0.0097 0.0724 0.0114 0.1617 0.0097 0.2552 -0.094 0.2951 -0.1417 0.7235 -0.8765 0.7897 -0.9337 0.7947 -0.9333v0.0016c0.0951 -0.1002 0.2446 -0.135 0.378 -0.1268 0.0609 0.0037 0.1215 0.0154 0.1769 0.0407 0.5318 0.2426 1.4013 0.621 1.4013 0.621l0.5815 0.2614c0.0974 0.047 0.1863 0.1577 0.1906 0.2653 0.0026 0.0669 0.0098 0.1749 -0.0141 0.3725 -0.0313 0.2587 -0.11 0.5702 -0.1882 0.7334 -0.055 0.1145 -0.1262 0.2161 -0.209 0.3021 -0.1123 0.1166 -0.1957 0.1874 -0.3307 0.288 -0.0822 0.0612 -0.1248 0.09 -0.1248 0.09 -0.1389 0.0876 -0.2172 0.1314 -0.3827 0.2195 -0.2574 0.1371 -0.5418 0.2159 -0.8331 0.2309 -0.1857 0.0095 -0.3709 0.0229 -0.5564 0.0129 -0.0082 -0.0005 -0.5682 -0.0865 -0.5682 -0.0865 -1.4219 -0.374 -2.7369 -1.0746 -3.84036 -2.0462 -0.22561 -0.1986 -0.43484 -0.4135 -0.6484 -0.6261 -0.88906 -0.8851 -1.56212 -1.8395 -1.97025 -2.7423 -0.20126 -0.4452 -0.3287 -0.922 -0.33071 -1.41262 -0.00369 -0.60693 0.19501 -1.19778 0.56471 -1.67912 0.07288 -0.09489 0.14205 -0.19331 0.2614 -0.306 0.12639 -0.11935 0.20683 -0.18342 0.29348 -0.22775 0.1155 -0.05909 0.24236 -0.09069 0.37175 -0.09978Z" stroke-width="1"></path>
</svg>